# xmcd
#
# Track frame offsets:
#	150
#	12940
#	25191
#	42802
#	53784
#	67213
#	77321
#	91242
#	107634
#	117109
#	132965
#	142328
#
# Disc length: 2087 seconds
# Revision: 0
# Processed by: cddbd v1.5.2PL0 Copyright (c) Steve Scherf et al.
# Submitted via: dBpowerAMP V12.0
#
DISCID=9b08250c
DTITLE=Flashback - Foxhounds and Fiddles
DYEAR=2017
DGENRE=Country
TTITLE0=Foxhounds and Fiddles
TTITLE1=Bonnie
TTITLE2=Two Rivers
TTITLE3=That's Where Glory Can Be Found
TTITLE4=You're Still to Blame
TTITLE5=Camp Forest Days
TTITLE6=Welcome to New York
TTITLE7=Autumn's Not That Cold
TTITLE8=Let Us Travel, Travel On
TTITLE9=Hag Song
TTITLE10=Old Forgotten Home
TTITLE11=Georgia Back Roads
EXTD=
EXTT0=
EXTT1=
EXTT2=
EXTT3=
EXTT4=
EXTT5=
EXTT6=
EXTT7=
EXTT8=
EXTT9=
EXTT10=
EXTT11=
PLAYORDER=
